<svg id="Layer_1" data-name="Layer 1" xmlns="http://www.w3.org/2000/svg" xmlns:xlink="http://www.w3.org/1999/xlink" viewBox="0 0 472 439.14"><defs><style>.cls-1,.cls-10,.cls-12,.cls-19,.cls-8{fill:none;}.cls-2{clip-path:url(#clip-path);}.cls-3{clip-path:url(#clip-path-2);}.cls-4{fill:#fdfad8;}.cls-14,.cls-15,.cls-16,.cls-17,.cls-4,.cls-7,.cls-9{fill-rule:evenodd;}.cls-5{fill:#c59d72;}.cls-15,.cls-6{fill:#67462f;}.cls-7{fill:#4c4c4d;}.cls-8{stroke:#4c4c4d;}.cls-10,.cls-12,.cls-19,.cls-8{stroke-miterlimit:10;}.cls-10,.cls-19,.cls-8{stroke-width:3.82px;}.cls-9{fill:#256e46;}.cls-10,.cls-12,.cls-19{stroke:#fff;}.cls-11{fill:#393769;}.cls-12{stroke-width:2.55px;}.cls-13{fill:#fff;}.cls-14,.cls-18{fill:#7dbe4e;}.cls-16{fill:#d8e037;}.cls-17{fill:#7a563b;}.cls-19{stroke-linecap:round;}</style><clipPath id="clip-path" transform="translate(-19.17 -23.49)"><rect class="cls-1" y="15.24" width="511.61" height="481.49"/></clipPath><clipPath id="clip-path-2" transform="translate(-19.17 -23.49)"><rect class="cls-1" x="48.95" y="243.44" width="423.95" height="224.17"/></clipPath></defs><g class="cls-2"><g class="cls-3"><path class="cls-4" d="M61.36,245c0-113.38,89.84-205.3,200.66-205.3S462.67,131.64,462.67,245,372.83,450.33,262,450.33,61.36,358.41,61.36,245" transform="translate(-19.17 -23.49)"/><path class="cls-5" d="M168,139.2c2.91-1.5,8.07-3.93,13-6.78,2.26-1.32,3.83-3.85,6.09-5.17,6.55-3.79,13.09-7.7,20-10.72,12.9-5.63,26.06-10.63,39.09-16a37.93,37.93,0,0,1,17.43-3.12c12.66.93,25.57,1.57,37.52,5.59,16.38,5.5,33.06,10.9,47.44,21.06a50.74,50.74,0,0,1,8.16,7.9c6.68,7.46,15.28,13.22,20,22.42a153.78,153.78,0,0,1,6.67,13.89c4.59,11.89,9,23.84,13.19,35.89a60.12,60.12,0,0,1,2.72,29.65,383,383,0,0,1-9.52,40.45c-3.35,11.7-6.58,23.6-13.4,34-1.77,2.69-3.94,5.12-5.82,7.75q-6.39,8.91-12.67,17.9a106.07,106.07,0,0,1-45.23,37.42,93.91,93.91,0,0,0-9.45,4.77c-10.5,6.12-21.82,7.87-33.77,6.89a29.88,29.88,0,0,0-8.12.48c-9.46,1.86-18.33-.38-27.13-3.46-2.83-1-5.63-2.33-8.55-2.74-15.1-2.1-28.41-9.09-42.09-15.07a24.07,24.07,0,0,1-7.58-4.66c-11-11.27-22.9-21.92-32.26-34.46-8.42-11.26-12.77-25.19-14.91-39.31a295.42,295.42,0,0,1-3-30.73c-.46-10.45-.64-20.83.81-31.44,1.64-12.12,3.14-24.12,6.43-36,3.91-14.14,10-26.91,20.79-37,3.52-3.29,8.09-5.47,14.22-9.49m7.19,4.75c-14.64,10.37-25.29,22.45-30.9,36.14a170,170,0,0,0-13.22,67.52c.1,6.78-.75,13.84.84,20.28,4.26,17.31,7.05,35.13,15.38,51.26,4.29,8.31,9.72,15.85,17.16,21.39a130.81,130.81,0,0,0,52.38,23.58c6,1.24,11.65,4.41,17.56,6.37,5.35,1.77,10.78,3.82,16.32,4.44,6.71.76,13.6-.24,20.37.21,16.83,1.14,30.37-6.8,43.8-15.23,3.67-2.31,7.21-4.82,10.94-7A91,91,0,0,0,353,328.7c6.94-9.36,14.1-18.55,20.68-28.15C380.83,290,387.49,279.16,389,266c.82-7,1.41-14.13,2.92-21,3.92-17.87.52-35.28-4.23-52.16-3.49-12.4-9.69-24.1-15.27-35.85a34,34,0,0,0-14.21-15.3c-7.78-4.39-15.09-9.61-22.81-14.1-6.8-4-13.57-8.31-20.91-11-14.89-5.39-30.56-7.3-46.37-8.24-8.94-.54-17.06,2.74-25.58,4.16a87,87,0,0,0-26.89,9c-8.57,4.59-16.86,9.7-25.35,14.45-5,2.78-10.07,5.31-15.11,7.95" transform="translate(-19.17 -23.49)"/><path class="cls-5" d="M207.84,148.06c5.34-2.58,10.62-5.31,16-7.68,7.46-3.25,14.86-6.78,22.61-9.15,6.7-2,13.91-3.93,20.77-3.56,11.86.63,24,1.75,35.36,5,17.34,5,33.11,13.45,44.78,28.22,4.31,5.47,11,9,13.91,15.76,2.56,6,4.8,12.08,7.73,17.85,7.74,15.24,7.74,31.76,5.89,47.78-1.35,11.66-2,23.87-6.91,35-8.11,18.46-19.12,35.11-35.8,46.58-14.52,10-29.72,19.58-45.86,26.41-13.22,5.59-27.89,8.41-43.06,4.35-13.78-3.7-27.16-7.62-38.88-16.19-3.88-2.85-8.57-4.76-13.11-6.54-14.38-5.66-24-16.12-31.6-29.22-4.4-7.57-6.37-15.65-7.22-24-2.2-21.62-4.5-43.38,3.41-64.46,3.91-10.42,7.21-21.3,12.81-30.76,4.28-7.24,11.4-13,17.91-18.65,6.75-5.87,14.27-10.84,21.45-16.2l-.24-.62m102,181.36c8.87-7.94,17.78-15.82,26.59-23.83,9.9-9,16.19-20.3,20.19-33,1.38-4.41,2.79-8.83,4.47-13.13,8-20.46,7.51-40.72-.75-61A128.19,128.19,0,0,0,337.74,162c-6.43-7.31-14.32-14-24-16.3-16.58-4-33.12-8-50.64-7.36-21.53.82-39.39,9.52-55.71,22.27-9,7-16.92,15.24-25.69,22.48-8.5,7-13.63,16-16.86,26.18a132.64,132.64,0,0,0-5,19.69c-1,6.37-1.57,13.05-.71,19.37,1.71,12.6,4.4,25.09,7,37.56A36,36,0,0,0,170,296.55c5.39,9.21,11.95,17.52,20.85,23.67,7.16,4.93,14.59,9.49,21.56,14.68,12,8.94,25.42,11.51,40.06,10.52,20.2-1.37,40.42-2.29,57.41-16" transform="translate(-19.17 -23.49)"/><path class="cls-5" d="M104.69,359.36C97.51,348.07,90.3,336.87,86.39,324c-1.88-6.19-2.92-12.65-4.44-19-2.76-11.51-6.53-22.74-8.24-34.54-1.86-12.79-.81-25.43.35-38.15.77-8.39.56-16.87,1.59-25.21,1.2-9.67,3.52-19.2,4.91-28.85,2.56-17.91,10.91-33.49,19.64-48.83a60.79,60.79,0,0,1,12.23-15.06c12.07-10.77,24.3-21.45,37.23-31.14,18-13.46,37.7-24,59.81-28.81,6.91-1.49,13.5-4.55,20.84-4.53s14.53-.63,21.77-1.3c7-.64,13.86-2,20.84-2.46,11-.75,21.49,2.63,31.92,5.26,12.6,3.17,24.87,7.64,37.22,11.76A100.14,100.14,0,0,1,354,68.23c7.57,3.67,15.1,7.42,22.54,11.34,7.86,4.13,13.45,10.89,19.1,17.48,4.59,5.35,8.63,11.19,13.43,16.31,5.54,5.91,9.17,12.74,12,20.18,2.48,6.52,4.42,13.38,7.82,19.4,6.71,11.89,9,25,11.61,38,2.74,13.66,3.77,27.5.72,41.35A22.52,22.52,0,0,0,441,238a266.26,266.26,0,0,1-7.39,73.64c-3.17,13-10,25.2-15.79,37.46-3,6.3-7.26,12-11.06,17.88a10.49,10.49,0,0,1-2.9,2.85c-5.69,3.81-9.66,8.85-13.51,14.62A80.74,80.74,0,0,1,372.06,404c-10.39,7.77-21.9,14.09-33.08,20.77a107.11,107.11,0,0,1-13.87,6.77,55.69,55.69,0,0,1-11.59,3.57c-9,1.59-18.17,3.61-27.29,3.79a149,149,0,0,1-29.87-2.49c-22.17-4.09-44.21-8.85-66.23-13.72C178,420,165.78,417,155.65,408.91c-2.29-1.84-5.18-3-7.9-4.19C139.39,401,132.39,396,127,388.25c-7-9.95-14.83-19.29-22.31-28.89m299.72-238.7a111.74,111.74,0,0,0-41.93-40.27c-4.5-2.49-9.25-4.58-13.94-6.7C333.45,66.85,318.08,60.76,301.89,57c-11.73-2.76-23.71-2.3-35.59-3.23a89.62,89.62,0,0,0-33.69,4c-14.54,4.46-28.81,9.8-43.19,14.76-7.67,2.65-15.54,4.87-23,8.08C154,85.94,141.8,92,133,103c-3,3.82-6.54,7.24-9.63,11-6.16,7.53-12.42,15-18.2,22.82C94.66,151.1,91.5,168.18,88.73,184.94c-2.42,14.63-2.46,29.67-3.32,44.53-1.82,31.41,3.06,62.25,8.66,93,1.75,9.62,5,18.87,11.19,26.76,2,2.55,3.73,5.34,5.77,7.87,6.82,8.43,13.19,17.31,20.7,25.07,12.54,12.92,30.41,17.57,45,27.43.42.29,1.06.23,1.59.38,13,3.63,26.1,6.77,38.84,11.75s26.49,7.26,40.36,8.49c18.29,1.64,36.19.55,53.79-4.61,7-2.06,13.87-4.67,20.89-6.75a51.39,51.39,0,0,0,21.58-12.62C368.44,391.76,382.64,376.81,397,362a29,29,0,0,0,3.28-4.65c2.35-3.59,4.65-7.21,7-10.81,2.21-3.42,4.68-6.69,6.6-10.26,3.73-6.94,6.9-14.19,10.75-21.07,8.81-15.73,11.26-32.49,9.79-50.28C433.31,252,433.14,239,432.79,226c-.16-5.95.71-11.95.26-17.86-1.52-19.65-7.29-38.39-13.85-56.77-3.8-10.65-9.79-20.52-14.79-30.74" transform="translate(-19.17 -23.49)"/><path class="cls-5" d="M426,247.7c.58,1.22,1.53,2.39,1.68,3.65,2.13,17.93,3.24,36.26-4.2,52.92-6.36,14.26-12.86,28.64-22.14,41.63-10,14-21.66,26.38-33.9,38.34C362.56,389,358,394,353.41,399c-6.63,7.26-15,11.62-24.15,14.56-7.46,2.39-14.94,4.76-22.49,6.83-15.59,4.26-31.38,5-47.53,3.87-14.8-1-28.75-5.28-42.86-9-12.58-3.31-24.86-7.79-37.27-11.75a7.85,7.85,0,0,1-1.53-.6c-14.4-8-30-14-42.65-25a71.85,71.85,0,0,1-9.82-10.85c-6.36-8.34-12.69-16.74-18.55-25.45-4.78-7.12-6.41-15.56-7.79-23.86-4.25-25.41-8.84-50.84-8.26-76.72.44-19.51.24-39.3,3.54-58.42,3.63-21.09,10.6-41.62,26.77-57.47,6-5.84,11.21-12.42,16.7-18.75,6.84-7.89,15.43-13.18,24.63-17.94,15.36-7.94,32.29-11.27,48.26-17.38C221,67,231.94,63.79,242.85,60.58a49.19,49.19,0,0,1,13.52-2c9.51,0,19,.23,28.52,1a94.59,94.59,0,0,1,30,7c13.47,5.77,27.16,11,40.86,16.24,11.3,4.3,20.2,11.9,28,20.64,13.44,15.09,24.67,32,31,51.17,7.54,22.91,14.95,46.12,12.2,70.92-.18,1.61-.53,3.2-.8,4.8-.39-3.74-.9-7.47-1.15-11.21-.38-6,.14-12.07-1-17.85-1.87-9.28-4.65-18.38-7.31-27.49-4.36-15-9.65-29.45-21.17-40.8-3.65-3.59-6.52-8-9.68-12-6-7.74-12.51-14.91-20.88-20.39-8.11-5.32-15.66-11.51-23.52-17.23a19.28,19.28,0,0,0-5.05-2.63c-10.48-3.53-20.83-7.66-31.55-10.22-16.64-4-33.32-5.65-50.8-3.65-19.49,2.23-38,5.54-54.69,16.31-1.57,1-3.54,1.37-5.25,2.19-11.26,5.38-23,10-33.6,16.46-9.67,5.86-18.33,13.49-27,20.81a61.78,61.78,0,0,0-12,13.09c-3.71,5.62-6.22,12.05-9,18.24-4.92,10.88-10.77,21.48-13,33.33-1.77,9.26-4,18.38-3.11,28.18,2,22.44,2.76,45,4.21,67.47.52,8.08.78,16.33,2.62,24.16,2,8.41,5.35,16.53,8.6,24.58C118.1,347.51,125.19,363,140.36,373c10.8,7.1,20.36,16.18,33.46,19.48a60.91,60.91,0,0,1,15.1,5.81c11.76,6.7,24.79,9.66,37.6,12.74s26.28,4.42,39.53,5.61c5.77.51,11.76-1.21,17.63-2.06,3.46-.51,6.87-1.65,10.34-1.93,19-1.5,36.08-7.69,50.46-20.36,8.75-7.7,17-15.93,25.61-23.81,13.24-12.15,26-24.59,34.85-40.61,6.06-11,12.5-21.66,12.38-34.82a21.83,21.83,0,0,1,1.4-8c4.67-12,6.18-24.61,7.25-37.31" transform="translate(-19.17 -23.49)"/><path class="cls-5" d="M106.38,268.29c-.87-7.47-1.87-14.92-2.57-22.4-.88-9.46-.77-19.07-2.46-28.37-2.36-13,1-25.05,4.93-36.75a181.51,181.51,0,0,1,19.27-40.23c5-7.86,11.08-13.79,18-19.34,14.84-11.9,29.63-23.78,48.46-29.28a76.58,76.58,0,0,0,18.42-8.57C220.7,77,232,74.63,243.62,73.24c6.47-.77,12.92-1.83,19.39-2.47,4.31-.42,8.81-1.12,13-.32,14.89,2.87,30.24,3.81,44.38,10.07a46.72,46.72,0,0,0,6.22,1.93c7.12,2,13.48,5,19.1,10.23,5.1,4.73,11.51,8,17.24,12.11,12.37,8.82,20.73,21.38,30.24,32.84,13.81,16.63,18.62,37,24,57.32,3.37,12.73,2,25.36,2.28,38.06.15,7,.32,14.05,0,21.06a91.28,91.28,0,0,1-1.78,13.54c-2,10.64-4.59,21.18-6.31,31.86-1.67,10.29-7.39,18.56-12.2,27.34-9.07,16.54-23,28.69-36.8,41a89.85,89.85,0,0,0-6.94,6.86c-14,15.62-31.09,26.57-51.62,30.6-10.55,2.07-21.31,3.49-31.95,5.4-3.64.65-7.59,0-11.36-.48-9.14-1.13-18.42-1.78-27.33-3.94-13.4-3.24-27.24-5.26-39.5-12.39-4.43-2.58-9.21-5.23-14.14-6.15-14.56-2.72-25.4-11.44-36.74-20-13.3-10-19.94-24.05-26.14-38.52-3.39-7.9-6.78-16-8.75-24.29-2.87-12.12-2.7-24.59-1.47-37,1.61,8.79,2.75,17.7,4.93,26.34,2.57,10.24,4.72,20.94,9.47,30.2,5.29,10.27,12.76,19.6,20.3,28.46,5.93,7,12.57,14.1,20.38,18.53a369.42,369.42,0,0,0,44.18,20.7c21.63,8.68,43.87,14.33,67.3,6.78a19.83,19.83,0,0,1,5.68-.51,117.26,117.26,0,0,0,39-7.64c9.1-3.34,19.13-5.65,26.08-12.92,8.81-9.22,17.11-19,25-29s14.78-20.77,22.75-30.69a68.85,68.85,0,0,0,11.74-22.17A232.3,232.3,0,0,0,411,267a191.19,191.19,0,0,0,3.72-32.2c.17-11.61-1.29-23.27-2.47-34.86a76.94,76.94,0,0,0-10.9-32c-4.71-7.83-9.84-15.38-14.8-23.05A20,20,0,0,0,385,143c-6.95-8.31-14-16.55-20.84-25-7.81-9.61-16.21-18.08-28.93-21.22-7.88-1.94-16.06-4-23-8a70.21,70.21,0,0,0-42.94-9c-5.87.61-11.87,0-17.72.7-7.22.88-14.58,1.86-21.46,4.09A172.85,172.85,0,0,0,203.9,95.46a327.5,327.5,0,0,0-33.66,19.67c-11.42,7.81-21.76,17.16-32.94,25.35a40.2,40.2,0,0,0-14.22,18.31A190.3,190.3,0,0,0,112.71,198c-3.39,21-5.9,41.88-5.41,63.14a47.57,47.57,0,0,1-.92,7.16" transform="translate(-19.17 -23.49)"/><path class="cls-5" d="M390.06,160.43c12.22,15.72,18.5,33.45,18.35,53.48-.07,9.18,1.22,18.38.95,27.54-.38,13.32-3.18,26.32-7.1,39.07-1.75,5.66-2.34,11.84-4.95,17a155.65,155.65,0,0,1-13.73,21.92c-10.44,14.21-21.09,28.28-32.18,42-5.07,6.26-10.75,12.44-17.32,16.94-5.65,3.88-13,5.36-19.55,7.86-12,4.57-24.83,5.2-37.42,6.86-1.35.18-2.85,0-4,.54-14.39,6.47-28.87,1.48-43.23.15-5.53-.51-11-2.84-16.23-5.08-16-6.89-32-13.66-47.53-21.43-10.06-5-17.43-13.76-24.38-22.54-3.88-4.89-8-9.7-11.28-14.95s-6.75-10.68-8.5-16.53c-6-20-10.43-40.23-9.8-61.55.67-22.42,3.75-44.46,7.71-66.35,1.9-10.54,6.63-20.59,10.49-30.71.89-2.34,3.24-4.32,5.31-6C146.45,140,157,131,168.36,123c20.46-14.34,41.47-27.95,65.87-34.86,5.66-1.6,11.78-1.69,17.7-2.34,6.46-.71,12.93-1.53,19.42-1.83,11.87-.53,23.08,2.28,34,7,9.7,4.18,19.46,8.52,29.6,11.34,10.74,3,17.67,10.39,24.5,18,7.23,8.09,14.05,16.57,20.71,25.14,3.66,4.71,6.63,9.94,9.91,14.94m-8.2-7.49c-9.68-13.53-19.76-22.68-29.5-32.13a15.79,15.79,0,0,0-3.33-2.3c-15.19-8.65-31.09-15.51-48.27-19.1-11.41-2.38-22.56-6.48-34.42-6-6.47.26-13.25.31-19.29,2.3-11.58,3.83-22.75,8.91-34.06,13.57a130,130,0,0,0-14,6.27c-11.59,6.47-22.67,14-34.59,19.72-13.52,6.52-22.59,17-28.81,29.83-11.33,23.36-15.36,48.58-15,74.33a348.2,348.2,0,0,0,3.53,46.09c2.39,16.17,7.07,32,17.52,45.13,4.35,5.51,10,10,14.39,15.48a91,91,0,0,0,45.16,30.39c12.42,3.84,24.76,7.9,37.27,11.43a60.59,60.59,0,0,0,15.27,2.22c8.95.14,17.91-.4,26.86-.77a36.89,36.89,0,0,0,6.42-1c12.33-2.72,22.89-9.64,34.24-14.67,10.77-4.78,19-13.23,27.8-20.8,3.84-3.32,7-7.53,10.1-11.59s5.54-8.71,8.82-12.65c9.63-11.55,17.53-23.85,22.5-38.31,6.91-20.1,13.3-40.36,14.59-61.55.59-9.7-.53-20-5-29.44-3.66-7.82-6.1-16.22-9.3-24.27-3.31-8.29-4.62-17.48-8.95-22.22" transform="translate(-19.17 -23.49)"/><path class="cls-5" d="M155.49,322.5c-2.43-5-5.84-9.84-7.27-15.23-6.17-23.18-16-45.82-11.15-70.82.87-4.46-.53-9.34.24-13.84,3-17.46,7.05-34.83,16.6-49.88,5.05-7.95,11.51-15.39,20.25-20.41,11.26-6.48,22-13.85,33-20.69,11.93-7.4,25.36-10.67,38.73-14.43,23.69-6.66,46.4-2.29,68.67,5.38,9.11,3.14,17.46,8.65,25.91,13.52,5.63,3.24,10.85,7.19,16.18,10.93a34.16,34.16,0,0,1,13,16.32,99.53,99.53,0,0,0,6.48,14c8,14.32,10.52,29.91,11.82,46,1.27,15.75-3.11,30.72-5.12,46-1.69,12.75-9.58,22.84-16.83,33-5,7.06-9.48,14.7-15.41,20.92-8.2,8.59-17.45,16.21-26.45,24-3,2.61-6.81,4.29-10,6.73-14.35,11-30.38,16.56-48.54,15.64-4.35-.22-8.79.3-13-.43a118,118,0,0,1-16.34-4.29c-7-2.24-13.63-5.63-20.72-7.19-19.27-4.24-36.44-12.4-51.2-25.46-3.22-2.85-5.82-6.38-8.87-9.79M207.31,143c-19.23,13.13-32.73,24-44.29,37.13a10.27,10.27,0,0,0-1.8,3.55c-1.2,3.83-2.08,7.77-3.43,11.55-1.94,5.37-4.42,10.54-6.26,15.94-7,20.53-7.67,41.67-4.42,62.83,1.5,9.79,1,20.1,6.5,29.17,8,13.27,17.29,25.07,31.47,32.23,5.08,2.56,10.25,5,15.08,8A145.59,145.59,0,0,0,231.91,358c23.73,7.69,46.06,4.44,67.37-7.64,9.38-5.33,18-12.05,27.67-16.79,8.32-4.09,14.49-10.45,21.15-16.3A63.69,63.69,0,0,0,359,304.17a193.61,193.61,0,0,0,11.59-20.35c2.27-4.58,4.4-9.55,5.1-14.55,2.05-14.43,6.22-28.54,4.88-43.52-.95-10.52-.32-21.05-5.31-30.88-3.19-6.29-5.76-12.9-8.59-19.38-3.38-7.7-10.11-12.59-15.3-18.78-5.56-6.63-12-11.29-19.05-16.07-18-12.28-38.22-16.51-59.2-18.71-3.48-.36-7.17-.67-10.54,0a192.24,192.24,0,0,0-55.28,21" transform="translate(-19.17 -23.49)"/><path class="cls-5" d="M344.07,178.57c10.69,13.7,15,29.89,18,46.59a23.52,23.52,0,0,1,0,6.49c-1.85,17.2-7.52,33.37-14.43,49-3,6.77-8,12.89-13,18.5a157.77,157.77,0,0,1-38.88,31.74c-11.83,6.85-24.84,7.25-37.85,8-1.36.08-2.74-.08-4.07.11-13.51,1.93-25.87-1.16-37.42-8.24-12.53-7.66-24.75-15.64-34.35-27.05-5.51-6.55-9.61-13.58-10.95-22.25-1.41-9.11-3.25-18.16-5.23-27.17a73.79,73.79,0,0,1-.79-29.11c.83-4.67,3.24-9,4.55-13.63,2.77-9.74,8.46-17.29,16.09-23.77,9.72-8.27,18.8-17.31,28.72-25.31C231.13,149,250.31,143,272,144c13.2.54,25.81,3.53,38.42,6.63,10.57,2.6,19,9.16,25.83,17.55,2.75,3.36,5.23,7,7.83,10.44m-128-6.51c-3.1,2.63-6.25,5.2-9.27,7.91-5,4.54-10,9.16-15,13.78a27.42,27.42,0,0,0-2.68,3c-8,10-12.2,21.78-14.25,34.2-1.91,11.57-2.77,23.28,3.06,34.27,5,9.35,10.32,18.51,14.77,28.09,3.16,6.79,8.23,11.12,14.13,15.23,9.33,6.49,20.36,8.8,30.53,13.21,3.2,1.38,6.59,2.85,10,3.17,17.52,1.64,34.6.73,50.44-8.52,5.73-3.33,10.94-6.63,14.88-12.19a43.39,43.39,0,0,1,10.89-10.9c5-3.35,7.85-8.23,10.89-12.84a109.57,109.57,0,0,0,15.08-35c2.86-12.05,4.06-24.23-.24-36.18-2.58-7.13-5.74-14.07-8.91-21-1.81-3.92-3.64-8-6.38-11.28-11.64-13.73-27.12-20.8-44.61-22.78-11.61-1.32-23.16,1.38-34.76,3-14.21,2-26.49,7.67-38.61,14.73" transform="translate(-19.17 -23.49)"/><path class="cls-5" d="M195,287.49c-4.28-8.77-8.8-17.44-12.77-26.35-4.48-10-4.75-20.54-1.77-31.1,2.34-8.33,3.27-17.21,9.05-24.23a70.53,70.53,0,0,1,7-7.81c10.67-9.61,20.57-20.05,33.36-27.25,10.78-6.06,22.55-8.16,34.23-10,13.11-2.06,26.69-3.31,39.42,2.43,6.91,3.12,13.87,6.44,20.07,10.72a32.18,32.18,0,0,1,11.78,15.29c2.79,7.37,6.11,14.52,9,21.86,3.67,9.44,3.52,19.16,1.23,28.85-3.57,15.18-8.74,29.73-18.71,42-2.7,3.35-6.14,6.1-9.22,9.15-1.72,1.72-3.89,3.24-5,5.3-5.92,11-16.57,15.61-27.27,19.53-16,5.86-32.37,6.75-48.4-.14-8-3.41-16.31-5.45-24-10-8-4.68-13.38-10.77-18-18.34m104.1,3.1c4.83-3.5,10.44-6.31,14.36-10.64,16.13-17.83,21.27-38.51,14.18-61.81-1.58-5.2-3.22-10.38-5.09-15.48-4.85-13.29-14.83-21.38-28-24.7-9.14-2.29-18.81-2.57-28.26-3.53a22.23,22.23,0,0,0-8.1.47c-9.66,2.72-19.23,5.75-28.82,8.74a7.66,7.66,0,0,0-2.78,1.66c-10.91,10-23,19-27.75,34.08-2.48,7.85-4.94,15.49-3.2,23.91a57.15,57.15,0,0,1,1.19,12.17c-.11,12.23,5.79,21,14.95,28.45,9.64,7.83,21,12.24,32.11,17.24,5.42,2.44,10.94,4.81,17.23,3.87,13.75-2,27.71-3.39,38-14.43" transform="translate(-19.17 -23.49)"/><path class="cls-5" d="M292.54,288.68a55.93,55.93,0,0,1-23,9.92,44,44,0,0,1-28.28-4.26c-5.33-2.68-10.77-5.21-15.82-8.34a119.84,119.84,0,0,1-15.12-10.93A19.94,19.94,0,0,1,203.05,261c-.53-7.58-1.8-15.09-2.36-22.67-.91-12.4,4.58-22.68,11.71-32.15,2.58-3.43,5.95-6.31,9.16-9.24,5.88-5.39,12.85-8.73,20.26-11.81,12.57-5.21,25-5.25,38.2-3.36C288.7,183,297,184,304.77,188.7c5.47,3.3,9.83,7.53,11.73,12.92a282.6,282.6,0,0,1,8.95,32.89c2.53,11.36-2.6,21.19-7.44,31-4.95,10.08-14.18,15.39-25.47,23.14M220.23,263c5.71,9.26,13.87,15.15,22.2,20.79a11.5,11.5,0,0,0,5.32,1.75c14.77,1.07,28.64-1.65,40.84-10.52a91.37,91.37,0,0,0,10.76-8.73c4.88-4.85,8.62-10.63,9.78-17.52,1-5.87,1.34-11.87,1.75-17.83,1.25-18.27-14.22-37.1-32.35-38.8a258,258,0,0,0-26.83-.69,29,29,0,0,0-9.42,2.18c-11.46,4.22-17.87,13.31-23.33,23.71-8.33,15.85-8.45,31,1.28,45.66" transform="translate(-19.17 -23.49)"/><path class="cls-5" d="M238.93,202.13c5.46-4.54,12.27-5.69,19.54-5.29s14.72,0,21.88,1.17c15.88,2.66,27.52,19.58,25.09,35.38-.54,3.48-1.29,7-1.14,10.5.38,8.79-4.05,14.88-10.41,20-4.21,3.41-8.38,6.9-12.83,10-9.49,6.52-20.52,7.15-31.3,6.29-8.06-.65-14.1-6.7-19.81-12.06-14.39-13.51-14.18-34.26-7.07-47.89,3.91-7.48,8.08-14,16.05-18.09m6.66,5.84a60.57,60.57,0,0,0-5.89,4.36c-4.76,4.52-9.3,9.26-9.61,16.4-.53,12.25,4.86,21.76,13.43,30s18.25,6.84,28.13,4.12c11.11-3.07,17.94-10.14,20.45-21.77,1.65-7.66-.63-14.32-2.53-21.39-1.32-4.85-4.12-7.89-8-10.64-4.88-3.47-10.66-3.65-16.12-5.07-7.29-1.91-13.88-.44-19.9,4" transform="translate(-19.17 -23.49)"/><path class="cls-5" d="M240,248.4c-1.52-3.71-3.23-7.14-4.35-10.75-3.19-10.32-.48-16.39,9.3-21.77a11.3,11.3,0,0,0,3.26-2.43c4.47-5.4,10.18-5.62,16.29-4A141,141,0,0,1,280,214c2.36.91,4.55,2.86,4.36,6.27-.08,1.48.84,3.06,1.48,4.52,6.46,14.88-1.7,30.51-17.62,33.59a93,93,0,0,1-9.69,1.38c-9,.74-13.26-6.16-18.5-11.36" transform="translate(-19.17 -23.49)"/><path class="cls-6" d="M222.79,31.27c2.09-3.2,3.72-5.69,4.52-6.93L241,24.09l7.7,7.6c4.15-3.76,7.08-10.86,12.63-7.17,4.25,2.83,10.35-3.42,12.13,4.31l7.27-3.22,11.37,3.08c.77,1.44,1.87,3.52,3.24,6.12,5.85-4,11.6-1.86,17.4-1.23,2.42.26,5-.76,6.5-1l13.57,1.52c.72,1.32,1.42,4.45,3.3,5.56s4.95.16,7.52.11c2.25,6.81,2.25,6.81,9.63,5.7.88,1.34,1.7,3.85,2.8,4,1.88.22,3.94-1,6.6-1.91,1.27,2.76,1.87,6,6.62,7.13,3.47.8,6.54,3,10.43.89.57,3.69,1,6.73,1.63,10.4L387.58,64c1.83,1.32,3.61,3.58,4.94,3.35,2.62-.47,3.55-.23,4.82,2.3.74,1.47,3.71,1.83,6.33,3-.11,1.56-.3,4.16-.58,7.95l8.37-.66c.72,3.56,1.28,7.39,2.33,11.09a7.19,7.19,0,0,0,2.9,3.61c5.68,3.73,8.13,7.07,9.21,13.37l5.71.2c-2.79,9,3.7,11.45,9.81,13.88,2,3.6-2.37,11.09,7.4,9.39-4.76,8,3,14.18.8,21.31l6.68,4.12c-.4,5.11-1.95,10.71,5.05,13.27l-3.68,6.93,7.62,5.4c-1.46,3.32-2.88,6.51-4.5,10.19l4.24,2.91c.06.54.35,1.22.13,1.59-4,6.45-.49,13,.15,19.38.3,2.9,1.53,5.51-.11,8.34-2.14,3.7-1,6.19,3.87,7.71-5.9,1-6.47,5.38-4.91,8.42,1.78,3.46.26,6.06.29,9.07.05,5.91,1.62,11.72-1.65,17.49-.61,1.08,2.1,4,3.51,6.53l-2.93,4.45c-1.94,3-4,5.65-1.34,9.57,1.5,2.22.93,4.87-1,7.48a57,57,0,0,0-6.54,11.89c-1.29,3.05-1.5,6.54-2.38,9.78-1.68,6.24-3.49,12.44-5.77,20.54l-8.46,8.59c.69,2.22,1.38,4.47,2.21,7.2l-10,8.56c.85,1.91,1.9,4.24,3.19,7.15l-7.79,3.73c.32,2.75.65,5.62,1.05,9.13l-7.95,2.7,1.09,11H407.06c1.06,2.88,1.82,5,2.91,8l-11.91,3.7-9,7.94c-.44,2.26-.16,6.07-1.92,8.11-1.24,1.44-5.27.48-9.13.62-3.14,5.3-9.83,5.55-16.32,6.83a9.42,9.42,0,0,0-.91,1.94,17.18,17.18,0,0,0-.22,2.83c-3.38.7-7.55.31-8.85,5.12-.25.92-2.94,2.05-4.1,1.71-3.64-1.05-4.07,1.56-4.55,3.66l-11-1.66c-.88,3.13-1.6,5.68-2.49,8.82-3.88-.16-7.82-.72-11.65-.32-1.89.2-3.59,2.18-5.9,3.7l-4.79-2.53c-1,3-1.85,5.62-2.7,8.23-.75-.13-1.52-.05-1.67-.32-4.89-8.64-5.61-8.83-14.21-4.12-1.83,1-4.27,2.76-5.72,2.23-4.9-1.79-9.05-2.24-13.67,1.1-1.59,1.15-5.12.13-7.55-.59-2.28-.68-4.28-2.28-7.08-3.87-2.9.85-6.36,3.15-10.4-.19-1.51-1.25-5.18.09-8.2.27-4.3-9.07-5.44-9.43-12.49-3-3.72-2.11-7.5-6.13-12-1l-5.71-6.62-7.11,2.9-4-6.08a32.77,32.77,0,0,0-3.2,1c-6.88,2.92-8,2.54-11.26-4-.36-.73-.65-1.51-1.07-2.21-2.76-4.58-4.63-4.72-8.58-.68l-.84.87c-3.32-1.47-6.15-2.57-8.82-4a11.48,11.48,0,0,1-4.24-3.29c-2.65-3.9-5.57-6.81-10.79-4.64l-3.65-8.13-16.47-7c-.39,1.29-.79,2.58-1.18,3.87l-4.14-10.53-6.18,1.16c-.45-3.66-.86-6.83-1.32-10.55-5.15-1.48-8.72-4.69-10.64-10.41-.79-2.4-4.94-3.67-8.09-5.79-.16-2.12-.36-4.78-.62-8-6.33-.4-5.14-10.82-13.52-9.26,0-2-.43-3.64,0-5.1,1.72-6.58.17-11.77-5.94-15.23-3.22-1.83-3.3-5-2.7-7.87.85-4.19-.41-6.8-4.44-7.67.6-7.53,2.08-14.63-2.67-21-.87-1.17-.63-3.13-1-4.7-.45-1.8-.45-4.42-1.64-5.22-5.56-3.73-4.67-7.87-1.15-12.56-2.15-4.05-4.8-7.8-2.75-12.93.55-1.36-2.51-4.16-4.45-7.12,1.21-3.45,3-7.51.49-12.74-4.49-9.46-3.78-10.3,4.87-18.14-1-2.51-2-5.28-3.05-8-1.22-3-2.49-5.85-.55-9.26.79-1.38.22-3.62,0-5.43-.13-1.33-1.33-3.29-.83-3.83,4.7-5.13,1-10.25.5-15.41a8.25,8.25,0,0,1,2.1-5.62c2.7-2.89,3.68-5.65,2.3-9.55s-1.31-7.05,3.48-9.29c6.2-2.9,4.28-8.56,2.87-13.95,2-1.75,5.24-2.29,4.65-6.39-1.15-7.94-.82-8,7-11,.11-1,.74-2.54.31-3.67-2-5.19-.11-8.72,3.86-12.13,1.47-1.27,1.9-4.13,2.16-6.34.23-2-.42-4-.69-6,5.18-2.32,9.61,1.21,14.72-1.51,5.71-3,5.78-7.1,6-12.31,4.25-.48,8.47-.65,9.63-5.68.21-.92,2-1.64,3.12-2.15,5.82-2.53,11.68-5,17.91-7.57,1.26-3.21-.69-8.38,4.06-10.32s8-5.59,11.9-8.61c3-2.32,8.2-1.89,12.46-2.43,7.57-1,7.59-.89,8.21-7.15,3.71-1.86,6.92-3.36,10.05-5,5.69-3.05,11.14-7.16,18.24-3.05,1.7-2.15,3.18-4,4.83-6.07l7,2.83c1.27-1.93,2.41-3.68,3.63-5.57l8,.39M100.64,360.44c7,12.84,16.21,23.35,25.36,34a51.36,51.36,0,0,0,20,14.84c1.26.51,2.74.86,3.66,1.76,12,11.67,27.69,14.51,43,17.95,20.09,4.51,40.38,8.15,60.5,12.56a123,123,0,0,0,41.23,2.19c6.19-.73,12.32-1.93,18.44-3.07,3.44-.64,7.19-.89,10.15-2.51,12.37-6.76,25.93-11.34,37.21-20.14,6.4-5,13.63-9.06,19.47-14.61,10.17-9.68,19.63-20.12,29.25-30.36,2.95-3.14,6.22-6.33,8-10.12,10-21,22.59-41.05,25-65,.45-4.58,1.11-9.14,1.44-13.73,1.53-21.89,2.94-43.78,4.48-65.66.67-9.59-1.1-18.9-2.53-28.3-1.75-11.56-4.07-22.91-8.85-33.62-4.42-9.9-9.2-19.6-12.9-29.86-2.34-6.49-6.74-12.37-10.9-18a185.5,185.5,0,0,0-15.71-18.68c-5.23-5.43-10.64-11.07-17-14.94a153.16,153.16,0,0,0-27.73-13.27C330.06,53.93,308.3,44.48,284.58,42c-6.69-.7-13.57-1.33-20.22-.61-15.85,1.72-31.6,4.43-47.43,6.43-17.57,2.22-33.82,8.54-48.79,17.4-17.25,10.19-33.82,21.59-48.56,35.37-4.29,4-9.75,7-13.24,11.62A161,161,0,0,0,85.6,147.12c-2.31,5.5-5.31,10.87-6.61,16.62-4.67,20.67-8.4,41.51-9.32,62.76-.35,8.13-1.79,16.25-1.67,24.36.26,16,2.31,31.85,7.29,47.26,2.58,8,3.74,16.4,6,24.5,3.86,14.08,11,26.59,19.39,37.82" transform="translate(-19.17 -23.49)"/></g><g class="cls-2"><path class="cls-7" d="M259.25,44.36v5c.91.22,1.83.43,2.72.67a30.79,30.79,0,0,1,16.64,11.16c6.3,8.12,12.53,16.31,18.93,24.36a35.2,35.2,0,0,0,25,13.47l.23,0V94.14c-1.26-.22-2.53-.39-3.78-.67A30.8,30.8,0,0,1,301,81.93c-6.4-8.26-12.73-16.59-19.26-24.76a34.84,34.84,0,0,0-20.84-12.49l-1.6-.32" transform="translate(-19.17 -23.49)"/><line class="cls-8" x1="286.46" y1="68.58" x2="286.46" y2="123.81"/><line class="cls-8" x1="254.15" y1="28.81" x2="254.15" y2="84.04"/><path class="cls-9" d="M178.71,80.57C226.29,44.11,325,78.2,432.07,242.89l-309.14-.6S131.12,117,178.71,80.57" transform="translate(-19.17 -23.49)"/><path class="cls-10" d="M178.71,80.57C226.29,44.11,325,78.2,432.07,242.89l-309.14-.6S131.12,117,178.71,80.57Z" transform="translate(-19.17 -23.49)"/><polygon class="cls-11" points="190.94 136.6 166.73 108.12 142.51 136.6 141.53 136.6 141.53 215.44 191.92 215.44 191.92 136.6 190.94 136.6"/><polygon class="cls-12" points="190.94 136.6 166.73 108.12 142.51 136.6 141.53 136.6 141.53 215.44 191.92 215.44 191.92 136.6 190.94 136.6"/><rect class="cls-13" x="168.07" y="172.36" width="15.45" height="40.9"/><rect class="cls-11" x="32.23" y="143.77" width="50.39" height="73.81"/><polygon class="cls-11" points="85.52 147.34 29.78 147.34 57.65 116.63 85.52 147.34"/><rect class="cls-13" x="49.7" y="175.84" width="15.45" height="37.2"/><rect class="cls-13" x="37.57" y="153.96" width="12.18" height="12.18"/><rect class="cls-13" x="64.42" y="153.96" width="12.18" height="12.18"/><rect class="cls-11" x="82.01" y="144.75" width="59.52" height="71.85"/><rect class="cls-12" x="82.01" y="144.75" width="59.52" height="71.85"/><rect class="cls-13" x="104.04" y="175.84" width="15.45" height="35.89"/><polygon class="cls-11" points="75.84 147.34 82.01 117.58 141.8 117.58 147.69 147.34 75.84 147.34"/><polygon class="cls-12" points="75.84 147.34 82.01 117.58 141.8 117.58 147.69 147.34 75.84 147.34"/><rect class="cls-13" x="87.88" y="153.96" width="12.18" height="12.18"/><rect class="cls-13" x="105.68" y="153.96" width="12.18" height="12.18"/><rect class="cls-13" x="123.25" y="153.96" width="12.18" height="12.18"/><polygon class="cls-11" points="322.06 139.39 320.54 137.71 320.54 136.98 319.87 136.98 289.58 103.61 259.29 136.98 257.99 136.98 257.99 138.41 257.1 139.39 257.99 139.39 257.99 214.42 320.54 214.42 320.54 139.39 322.06 139.39"/><polygon class="cls-12" points="322.06 139.39 320.54 137.71 320.54 136.98 319.87 136.98 289.58 103.61 259.29 136.98 257.99 136.98 257.99 138.41 257.1 139.39 257.99 139.39 257.99 214.42 320.54 214.42 320.54 139.39 322.06 139.39"/><rect class="cls-13" x="275.92" y="171.47" width="15.45" height="40.9"/><rect class="cls-13" x="293.2" y="150.63" width="8.13" height="8.13"/><rect class="cls-13" x="303.72" y="150.7" width="8.13" height="8.13"/><rect class="cls-13" x="303.72" y="140.72" width="8.13" height="8.13"/><rect class="cls-13" x="293.2" y="140.72" width="8.13" height="8.13"/><polygon class="cls-11" points="428.06 136.6 403.85 108.12 379.63 136.6 378.65 136.6 378.65 215.44 429.04 215.44 429.04 136.6 428.06 136.6"/><polygon class="cls-12" points="428.06 136.6 403.85 108.12 379.63 136.6 378.65 136.6 378.65 215.44 429.04 215.44 429.04 136.6 428.06 136.6"/><rect class="cls-13" x="405.19" y="172.36" width="15.45" height="40.9"/><rect class="cls-11" x="319.99" y="143.81" width="59.52" height="71.85"/><rect class="cls-12" x="319.99" y="143.81" width="59.52" height="71.85"/><rect class="cls-13" x="342.03" y="174.9" width="15.46" height="35.89"/><polygon class="cls-11" points="313.83 146.39 320 116.63 379.79 116.63 385.68 146.39 313.83 146.39"/><polygon class="cls-12" points="313.83 146.39 320 116.63 379.79 116.63 385.68 146.39 313.83 146.39"/><rect class="cls-13" x="325.87" y="153.02" width="12.18" height="12.18"/><rect class="cls-13" x="343.66" y="153.02" width="12.18" height="12.18"/><rect class="cls-13" x="361.24" y="153.02" width="12.18" height="12.18"/><polygon class="cls-11" points="250.7 145.68 250.7 144.99 250.07 144.99 221.2 113.18 204.72 131.33 204.72 127.26 198.97 127.26 198.97 137.67 192.32 144.99 191.08 144.99 191.08 146.35 190.23 147.28 191.08 147.28 191.08 218.8 250.7 218.8 250.7 147.28 252.16 147.28 250.7 145.68"/><polygon class="cls-12" points="250.7 145.68 250.7 144.99 250.07 144.99 221.2 113.18 204.72 131.33 204.72 127.26 198.97 127.26 198.97 137.67 192.32 144.99 191.08 144.99 191.08 146.35 190.23 147.28 191.08 147.28 191.08 218.8 250.7 218.8 250.7 147.28 252.16 147.28 250.7 145.68"/><rect class="cls-13" x="222.78" y="171.97" width="15.45" height="40.9"/><rect class="cls-13" x="201.85" y="174.49" width="12.18" height="12.18"/><path class="cls-13" d="M247.15,164.06a7.09,7.09,0,1,1-7.09-7.09,7.09,7.09,0,0,1,7.09,7.09" transform="translate(-19.17 -23.49)"/><path class="cls-14" d="M34.28,170.38H34a11,11,0,0,1-1.72-.14,14.86,14.86,0,0,1-1.61-.34,12,12,0,0,1-1.63-.55,11,11,0,0,1-2.23-1.16,10.51,10.51,0,0,1-1.52-1.13c-.15-.15-.32-.28-.47-.41a12.33,12.33,0,0,1-1.19-1.32,10.83,10.83,0,0,1-1.1-1.54,11,11,0,0,1-.84-1.6c-.19-.48-.4-1-.56-1.47a14.56,14.56,0,0,1-.4-1.61c-.08-.43-.1-.85-.17-1.27a9.94,9.94,0,0,1,0-2.11,14,14,0,0,1,.2-1.57,15.41,15.41,0,0,1,.67-2.48,13.8,13.8,0,0,1,.85-1.83.36.36,0,0,0,0-.43,8.86,8.86,0,0,1-1.29-2.66,10.85,10.85,0,0,1-.43-3.46,9.31,9.31,0,0,1,.41-2.46,9.54,9.54,0,0,1,.79-1.86,10.77,10.77,0,0,1,1.12-1.69c.14-.17.28-.34.43-.5a10.25,10.25,0,0,1,3.23-2.3,9.45,9.45,0,0,1,2.33-.74c.27-.05.55-.09.83-.12a.52.52,0,0,0,.43-.33,13.25,13.25,0,0,1,1.45-2.12,11.75,11.75,0,0,1,1.24-1.3,11.62,11.62,0,0,1,2-1.53,12.57,12.57,0,0,1,3.87-1.62c.45-.09.9-.19,1.36-.26a19.93,19.93,0,0,1,2.32-.15c.23,0,.42.12.65.09a3.26,3.26,0,0,1,.62.06c.37,0,.74.1,1.1.18a13.1,13.1,0,0,1,2.23.69,14.28,14.28,0,0,1,2.77,1.51,10.6,10.6,0,0,1,1,.84,10.47,10.47,0,0,1,.85.78,15.57,15.57,0,0,1,2,2.76,7.14,7.14,0,0,1,.57,1.14.71.71,0,0,0,.49.46,5,5,0,0,1,1.35.75,6.52,6.52,0,0,1,1.14,1,9.82,9.82,0,0,1,1.13,1.52,8.08,8.08,0,0,1,.8,2.06,4.64,4.64,0,0,1,.13.76q0,.45.06.9a8,8,0,0,1-.43,2.53c0,.13,0,.18,0,.26l.66.66A9.77,9.77,0,0,1,60.88,147,11.41,11.41,0,0,1,62,149.59c.12.41.21.83.31,1.25a14.28,14.28,0,0,1,.14,3.33,8.44,8.44,0,0,1-.35,1.83A11.37,11.37,0,0,1,61,158.76a7.61,7.61,0,0,1-.88,1.3,11.67,11.67,0,0,1-1,1.13A11.54,11.54,0,0,1,56.76,163a4.64,4.64,0,0,1-.69.38.66.66,0,0,0-.45.54,7.6,7.6,0,0,1-1.24,2.52A8.63,8.63,0,0,1,52.86,168a8.43,8.43,0,0,1-1.44.93,8.54,8.54,0,0,1-2.14.71,8.73,8.73,0,0,1-2.16.14,8.07,8.07,0,0,1-1.47-.25,11.41,11.41,0,0,1-1.69-.62c-.16-.07-.27-.25-.46-.25-.29-.27-.66-.42-.93-.71a.23.23,0,0,0-.31-.05,15,15,0,0,1-2.85,1.59c-.63.19-1.24.44-1.89.57a4.16,4.16,0,0,1-.77.14,8.6,8.6,0,0,1-2.47.23" transform="translate(-19.17 -23.49)"/><path class="cls-12" d="M34.28,170.38H34a11,11,0,0,1-1.72-.14,14.86,14.86,0,0,1-1.61-.34,12,12,0,0,1-1.63-.55,11,11,0,0,1-2.23-1.16,10.51,10.51,0,0,1-1.52-1.13c-.15-.15-.32-.28-.47-.41a12.33,12.33,0,0,1-1.19-1.32,10.83,10.83,0,0,1-1.1-1.54,11,11,0,0,1-.84-1.6c-.19-.48-.4-1-.56-1.47a14.56,14.56,0,0,1-.4-1.61c-.08-.43-.1-.85-.17-1.27a9.94,9.94,0,0,1,0-2.11,14,14,0,0,1,.2-1.57,15.41,15.41,0,0,1,.67-2.48,13.8,13.8,0,0,1,.85-1.83.36.36,0,0,0,0-.43,8.86,8.86,0,0,1-1.29-2.66,10.85,10.85,0,0,1-.43-3.46,9.31,9.31,0,0,1,.41-2.46,9.54,9.54,0,0,1,.79-1.86,10.77,10.77,0,0,1,1.12-1.69c.14-.17.28-.34.43-.5a10.25,10.25,0,0,1,3.23-2.3,9.45,9.45,0,0,1,2.33-.74c.27-.05.55-.09.83-.12a.52.52,0,0,0,.43-.33,13.25,13.25,0,0,1,1.45-2.12,11.75,11.75,0,0,1,1.24-1.3,11.62,11.62,0,0,1,2-1.53,12.57,12.57,0,0,1,3.87-1.62c.45-.09.9-.19,1.36-.26a19.93,19.93,0,0,1,2.32-.15c.23,0,.42.12.65.09a3.26,3.26,0,0,1,.62.06c.37,0,.74.1,1.1.18a13.1,13.1,0,0,1,2.23.69,14.28,14.28,0,0,1,2.77,1.51,10.6,10.6,0,0,1,1,.84,10.47,10.47,0,0,1,.85.78,15.57,15.57,0,0,1,2,2.76,7.14,7.14,0,0,1,.57,1.14.71.71,0,0,0,.49.46,5,5,0,0,1,1.35.75,6.52,6.52,0,0,1,1.14,1,9.82,9.82,0,0,1,1.13,1.52,8.08,8.08,0,0,1,.8,2.06,4.64,4.64,0,0,1,.13.76q0,.45.06.9a8,8,0,0,1-.43,2.53c0,.13,0,.18,0,.26l.66.66A9.77,9.77,0,0,1,60.88,147,11.41,11.41,0,0,1,62,149.59c.12.41.21.83.31,1.25a14.28,14.28,0,0,1,.14,3.33,8.44,8.44,0,0,1-.35,1.83A11.37,11.37,0,0,1,61,158.76a7.61,7.61,0,0,1-.88,1.3,11.67,11.67,0,0,1-1,1.13A11.54,11.54,0,0,1,56.76,163a4.64,4.64,0,0,1-.69.38.66.66,0,0,0-.45.54,7.6,7.6,0,0,1-1.24,2.52A8.63,8.63,0,0,1,52.86,168a8.43,8.43,0,0,1-1.44.93,8.54,8.54,0,0,1-2.14.71,8.73,8.73,0,0,1-2.16.14,8.07,8.07,0,0,1-1.47-.25,11.41,11.41,0,0,1-1.69-.62c-.16-.07-.27-.25-.46-.25-.29-.27-.66-.42-.93-.71a.23.23,0,0,0-.31-.05,15,15,0,0,1-2.85,1.59c-.63.19-1.24.44-1.89.57a4.16,4.16,0,0,1-.77.14A8.6,8.6,0,0,1,34.28,170.38Z" transform="translate(-19.17 -23.49)"/><path class="cls-15" d="M34.28,170.38a8.34,8.34,0,0,0,1,0,7.79,7.79,0,0,0,1.51-.24c.86,3.34,1.78,6.67,2.68,10.07a.43.43,0,0,0,.06-.31c0-3.38,0-6.75,0-10.13,0-.11.09-.27-.08-.36a5.7,5.7,0,0,1,.8-.35,15.91,15.91,0,0,0,2-1.16.26.26,0,0,1,.39,0c.27.28.63.42.91.69-.07,0-.09,0-.09.1v22a.24.24,0,0,0,0,.08c.1.07.15,0,.2-.07l1.26-1.58c.28-.34.56-.66.83-1,.46-.56.94-1.11,1.38-1.69.24-.3.5-.61.75-.9s.56-.66.82-1a.52.52,0,0,1,.24-.2,10.74,10.74,0,0,1,.92.56c.14.06.07.24.1.36a5.15,5.15,0,0,1,.2.7c-.33.17-.48.52-.72.77s-.58.74-.88,1.09-.67.86-1,1.27-.61.76-.93,1.12-.58.77-.9,1.12-.59.71-.88,1.06c-.42.5-.85,1-1.26,1.5a.48.48,0,0,0-.12.36,2.16,2.16,0,0,1,0,.36v40.81H39.53v-.36q0-22.41,0-44.81a4.7,4.7,0,0,0-.21-1.13c-.18-.79-.4-1.56-.62-2.34s-.43-1.65-.68-2.47c-.19-.64-.34-1.29-.51-1.93s-.37-1.34-.54-2-.42-1.53-.61-2.3c-.12-.51-.26-1-.4-1.53s-.32-1.14-.48-1.71-.26-1.08-.41-1.61-.33-1.16-.48-1.74c-.09-.38-.21-.75-.32-1.13" transform="translate(-19.17 -23.49)"/><path class="cls-14" d="M50.12,186a5.26,5.26,0,0,1-.23-1,.17.17,0,0,0-.11-.15,4.15,4.15,0,0,1-.79-.52h-.08a10.81,10.81,0,0,1-.72-.92,3.89,3.89,0,0,1-.5-1.29,3.83,3.83,0,0,1,.67-3,4,4,0,0,1,2-1.43,2.57,2.57,0,0,1,1.16-.12.51.51,0,0,0,.5-.25,4,4,0,0,1,2.28-1.54,4.26,4.26,0,0,1,2.1,0,4.37,4.37,0,0,1,1.93,1,4,4,0,0,1,1.18,1.89,5,5,0,0,1,.1,2,3.71,3.71,0,0,1-.38,1.15.23.23,0,0,0,0,.25,4.9,4.9,0,0,1-.51,5,5.26,5.26,0,0,1-1.61,1.4,3.83,3.83,0,0,1-1.57.51,7.38,7.38,0,0,1-.81.07,4.86,4.86,0,0,1-2.76-.87,5.42,5.42,0,0,1-1.66-1.9c-.06-.12,0-.29-.18-.38" transform="translate(-19.17 -23.49)"/><path class="cls-12" d="M50.12,186a5.26,5.26,0,0,1-.23-1,.17.17,0,0,0-.11-.15,4.15,4.15,0,0,1-.79-.52h-.08a10.81,10.81,0,0,1-.72-.92,3.89,3.89,0,0,1-.5-1.29,3.83,3.83,0,0,1,.67-3,4,4,0,0,1,2-1.43,2.57,2.57,0,0,1,1.16-.12.51.51,0,0,0,.5-.25,4,4,0,0,1,2.28-1.54,4.26,4.26,0,0,1,2.1,0,4.37,4.37,0,0,1,1.93,1,4,4,0,0,1,1.18,1.89,5,5,0,0,1,.1,2,3.71,3.71,0,0,1-.38,1.15.23.23,0,0,0,0,.25,4.9,4.9,0,0,1-.51,5,5.26,5.26,0,0,1-1.61,1.4,3.83,3.83,0,0,1-1.57.51,7.38,7.38,0,0,1-.81.07,4.86,4.86,0,0,1-2.76-.87,5.42,5.42,0,0,1-1.66-1.9C50.24,186.25,50.27,186.08,50.12,186Z" transform="translate(-19.17 -23.49)"/><path class="cls-16" d="M464.76,182.39c-.25-.23-.5-.46-.74-.7,0,0-.09,0-.15,0a11.27,11.27,0,0,1-1.41.38l-.71.09a12.55,12.55,0,0,1-1.37.05,11.13,11.13,0,0,1-1.51-.19,9.11,9.11,0,0,1-1.49-.42,8,8,0,0,1-1.51-.71,11,11,0,0,1-1.07-.71,9.47,9.47,0,0,1-1.41-1.35,11.22,11.22,0,0,1-.95-1.31,9.28,9.28,0,0,1-.78-1.58,9.46,9.46,0,0,1-.36-1.18,4,4,0,0,1-.17-.91,1.11,1.11,0,0,0-.52-1,6.76,6.76,0,0,1-1.27-1.12,11.69,11.69,0,0,1-1.69-2.26,10.2,10.2,0,0,1-1-2.25,10.34,10.34,0,0,1-.32-1.36c-.06-.44-.09-.87-.14-1.3a3.47,3.47,0,0,1,0-1.06c.07-.36,0-.71.1-1.07s.13-.81.22-1.21a14.44,14.44,0,0,1,.54-1.65,12.15,12.15,0,0,1,1.3-2.34,9.09,9.09,0,0,1,1.12-1.28,10.45,10.45,0,0,1,1.77-1.48,9.5,9.5,0,0,1,2.27-1.15c.23-.08.26-.13.26-.38v-1a6.29,6.29,0,0,1,.19-1.28,8.17,8.17,0,0,1,.83-2.24,10.45,10.45,0,0,1,1.12-1.68,13.38,13.38,0,0,1,1-1,10.58,10.58,0,0,1,2-1.48,12.48,12.48,0,0,1,1.54-.8,12.16,12.16,0,0,1,2.06-.69c.38-.11.76-.19,1.14-.26.22,0,.47,0,.68-.1a11.74,11.74,0,0,1,1.18-.1,3.43,3.43,0,0,1,1.46.05.48.48,0,0,0,.17,0,10.55,10.55,0,0,1,1.68.2,11.9,11.9,0,0,1,2.19.55l.79.3a11.71,11.71,0,0,1,2.33,1.27,11.49,11.49,0,0,1,1.23,1,9.16,9.16,0,0,1,.92,1,10.38,10.38,0,0,1,1.12,1.57,9.27,9.27,0,0,1,.75,1.67.43.43,0,0,0,.36.34,7.81,7.81,0,0,1,1.68.72,8,8,0,0,1,1.2.79,8.15,8.15,0,0,1,.86.8,7.77,7.77,0,0,1,1.64,2.58,9.31,9.31,0,0,1,.47,1.64,7.81,7.81,0,0,1,.12,2.26,9.19,9.19,0,0,1-.3,1.53,8.23,8.23,0,0,1-1.25,2.58c-.18.26-.17.28,0,.54a10.36,10.36,0,0,1,.82,1.63,10,10,0,0,1,.52,1.69c.08.37.11.75.17,1.12a12.12,12.12,0,0,1,.05,1.7,9,9,0,0,1-.19,1.55A10.37,10.37,0,0,1,483,174.6a11.51,11.51,0,0,1-.9,1.33,9.91,9.91,0,0,1-1.07,1.18,14.45,14.45,0,0,1-1.14.93,10.51,10.51,0,0,1-1.87,1.07,11.26,11.26,0,0,1-1.88.64,5.25,5.25,0,0,1-1.3.2c-.13,0-.16.06-.21.16a5.81,5.81,0,0,1-.6,1,6.46,6.46,0,0,1-1,1.06,7,7,0,0,1-1.61,1,5.57,5.57,0,0,1-1.45.46,8.54,8.54,0,0,1-1.43.13c-.2,0-.38-.12-.59-.07a6.51,6.51,0,0,1-2.52-.86c-.25-.15-.49-.33-.73-.5" transform="translate(-19.17 -23.49)"/><path class="cls-12" d="M464.76,182.39c-.25-.23-.5-.46-.74-.7,0,0-.09,0-.15,0a11.27,11.27,0,0,1-1.41.38l-.71.09a12.55,12.55,0,0,1-1.37.05,11.13,11.13,0,0,1-1.51-.19,9.11,9.11,0,0,1-1.49-.42,8,8,0,0,1-1.51-.71,11,11,0,0,1-1.07-.71,9.47,9.47,0,0,1-1.41-1.35,11.22,11.22,0,0,1-.95-1.31,9.28,9.28,0,0,1-.78-1.58,9.46,9.46,0,0,1-.36-1.18,4,4,0,0,1-.17-.91,1.11,1.11,0,0,0-.52-1,6.76,6.76,0,0,1-1.27-1.12,11.69,11.69,0,0,1-1.69-2.26,10.2,10.2,0,0,1-1-2.25,10.34,10.34,0,0,1-.32-1.36c-.06-.44-.09-.87-.14-1.3a3.47,3.47,0,0,1,0-1.06c.07-.36,0-.71.1-1.07s.13-.81.22-1.21a14.44,14.44,0,0,1,.54-1.65,12.15,12.15,0,0,1,1.3-2.34,9.09,9.09,0,0,1,1.12-1.28,10.45,10.45,0,0,1,1.77-1.48,9.5,9.5,0,0,1,2.27-1.15c.23-.08.26-.13.26-.38v-1a6.29,6.29,0,0,1,.19-1.28,8.17,8.17,0,0,1,.83-2.24,10.45,10.45,0,0,1,1.12-1.68,13.38,13.38,0,0,1,1-1,10.58,10.58,0,0,1,2-1.48,12.48,12.48,0,0,1,1.54-.8,12.16,12.16,0,0,1,2.06-.69c.38-.11.76-.19,1.14-.26.22,0,.47,0,.68-.1a11.74,11.74,0,0,1,1.18-.1,3.43,3.43,0,0,1,1.46.05.48.48,0,0,0,.17,0,10.55,10.55,0,0,1,1.68.2,11.9,11.9,0,0,1,2.19.55l.79.3a11.71,11.71,0,0,1,2.33,1.27,11.49,11.49,0,0,1,1.23,1,9.16,9.16,0,0,1,.92,1,10.38,10.38,0,0,1,1.12,1.57,9.27,9.27,0,0,1,.75,1.67.43.43,0,0,0,.36.34,7.81,7.81,0,0,1,1.68.72,8,8,0,0,1,1.2.79,8.15,8.15,0,0,1,.86.8,7.77,7.77,0,0,1,1.64,2.58,9.31,9.31,0,0,1,.47,1.64,7.81,7.81,0,0,1,.12,2.26,9.19,9.19,0,0,1-.3,1.53,8.23,8.23,0,0,1-1.25,2.58c-.18.26-.17.28,0,.54a10.36,10.36,0,0,1,.82,1.63,10,10,0,0,1,.52,1.69c.08.37.11.75.17,1.12a12.12,12.12,0,0,1,.05,1.7,9,9,0,0,1-.19,1.55A10.37,10.37,0,0,1,483,174.6a11.51,11.51,0,0,1-.9,1.33,9.91,9.91,0,0,1-1.07,1.18,14.45,14.45,0,0,1-1.14.93,10.51,10.51,0,0,1-1.87,1.07,11.26,11.26,0,0,1-1.88.64,5.25,5.25,0,0,1-1.3.2c-.13,0-.16.06-.21.16a5.81,5.81,0,0,1-.6,1,6.46,6.46,0,0,1-1,1.06,7,7,0,0,1-1.61,1,5.57,5.57,0,0,1-1.45.46,8.54,8.54,0,0,1-1.43.13c-.2,0-.38-.12-.59-.07a6.51,6.51,0,0,1-2.52-.86C465.24,182.74,465,182.56,464.76,182.39Z" transform="translate(-19.17 -23.49)"/><path class="cls-17" d="M464.76,182.39a7.09,7.09,0,0,0,2.1,1.12,4.21,4.21,0,0,0,1.15.24v50.14h-3.25Z" transform="translate(-19.17 -23.49)"/><path class="cls-14" d="M454.38,197.33l-.57-.54s-.06,0-.11,0a7.64,7.64,0,0,1-1.07.28l-.54.07a7.1,7.1,0,0,1-1,0,8.81,8.81,0,0,1-1.15-.14,7.41,7.41,0,0,1-1.14-.32,6.61,6.61,0,0,1-1.14-.54,8.77,8.77,0,0,1-.81-.54,6.88,6.88,0,0,1-1.07-1,8.81,8.81,0,0,1-.73-1,7.87,7.87,0,0,1-.59-1.2,8.36,8.36,0,0,1-.27-.89,3.33,3.33,0,0,1-.12-.69.88.88,0,0,0-.4-.77,4.84,4.84,0,0,1-1-.85,8.21,8.21,0,0,1-1.28-1.71,8.51,8.51,0,0,1-1-2.75c0-.32-.07-.66-.11-1a2.76,2.76,0,0,1,0-.81c.05-.27,0-.54.08-.81s.09-.61.16-.91a10.74,10.74,0,0,1,.41-1.25,8.82,8.82,0,0,1,1-1.78,7,7,0,0,1,.84-1,9.09,9.09,0,0,1,1.35-1.13,7.32,7.32,0,0,1,1.72-.87c.18-.06.2-.1.2-.29v-.72a5.28,5.28,0,0,1,.14-1,6.38,6.38,0,0,1,.63-1.71,7.67,7.67,0,0,1,.86-1.27,10.57,10.57,0,0,1,.73-.77,8.61,8.61,0,0,1,1.5-1.12,10,10,0,0,1,1.17-.61,9.52,9.52,0,0,1,1.56-.52c.29-.08.58-.14.87-.2s.36,0,.52-.07a5.26,5.26,0,0,1,.89-.08,2.61,2.61,0,0,1,1.11,0,.48.48,0,0,0,.12,0,6.78,6.78,0,0,1,1.28.15,9.37,9.37,0,0,1,1.66.41l.6.23a9.44,9.44,0,0,1,1.77,1,11.44,11.44,0,0,1,.94.75,7.82,7.82,0,0,1,.69.72,8.3,8.3,0,0,1,.85,1.19,7.24,7.24,0,0,1,.57,1.27.35.35,0,0,0,.28.26,5.92,5.92,0,0,1,1.27.54,5.56,5.56,0,0,1,.91.61,5.31,5.31,0,0,1,.65.6,5.86,5.86,0,0,1,1.25,2,8.94,8.94,0,0,1,.36,1.25,5.77,5.77,0,0,1,.08,1.71,6.07,6.07,0,0,1-.22,1.16,6.25,6.25,0,0,1-.95,2c-.13.2-.13.21,0,.4a9,9,0,0,1,.62,1.24,6.6,6.6,0,0,1,.39,1.29c.06.28.09.56.13.85a9.27,9.27,0,0,1,0,1.29,6.56,6.56,0,0,1-.14,1.17,7.87,7.87,0,0,1-.92,2.49,6.87,6.87,0,0,1-.68,1,7.75,7.75,0,0,1-.81.9c-.28.25-.57.48-.87.7a7.13,7.13,0,0,1-1.42.81,8,8,0,0,1-1.42.49,4.24,4.24,0,0,1-1,.15c-.1,0-.13.05-.16.13a4.35,4.35,0,0,1-.46.77,5.5,5.5,0,0,1-.73.8,5.31,5.31,0,0,1-1.22.79,4.27,4.27,0,0,1-1.1.35,6.7,6.7,0,0,1-1.09.1c-.15,0-.29-.09-.45,0a4.89,4.89,0,0,1-1.91-.66c-.19-.11-.37-.25-.55-.37" transform="translate(-19.17 -23.49)"/><path class="cls-12" d="M454.38,197.33l-.57-.54s-.06,0-.11,0a7.64,7.64,0,0,1-1.07.28l-.54.07a7.1,7.1,0,0,1-1,0,8.81,8.81,0,0,1-1.15-.14,7.41,7.41,0,0,1-1.14-.32,6.61,6.61,0,0,1-1.14-.54,8.77,8.77,0,0,1-.81-.54,6.88,6.88,0,0,1-1.07-1,8.81,8.81,0,0,1-.73-1,7.87,7.87,0,0,1-.59-1.2,8.36,8.36,0,0,1-.27-.89,3.33,3.33,0,0,1-.12-.69.88.88,0,0,0-.4-.77,4.84,4.84,0,0,1-1-.85,8.21,8.21,0,0,1-1.28-1.71,8.51,8.51,0,0,1-1-2.75c0-.32-.07-.66-.11-1a2.76,2.76,0,0,1,0-.81c.05-.27,0-.54.08-.81s.09-.61.16-.91a10.74,10.74,0,0,1,.41-1.25,8.82,8.82,0,0,1,1-1.78,7,7,0,0,1,.84-1,9.09,9.09,0,0,1,1.35-1.13,7.32,7.32,0,0,1,1.72-.87c.18-.06.2-.1.2-.29v-.72a5.28,5.28,0,0,1,.14-1,6.38,6.38,0,0,1,.63-1.71,7.67,7.67,0,0,1,.86-1.27,10.57,10.57,0,0,1,.73-.77,8.61,8.61,0,0,1,1.5-1.12,10,10,0,0,1,1.17-.61,9.52,9.52,0,0,1,1.56-.52c.29-.08.58-.14.87-.2s.36,0,.52-.07a5.26,5.26,0,0,1,.89-.08,2.61,2.61,0,0,1,1.11,0,.48.48,0,0,0,.12,0,6.78,6.78,0,0,1,1.28.15,9.37,9.37,0,0,1,1.66.41l.6.23a9.44,9.44,0,0,1,1.77,1,11.44,11.44,0,0,1,.94.75,7.82,7.82,0,0,1,.69.72,8.3,8.3,0,0,1,.85,1.19,7.24,7.24,0,0,1,.57,1.27.35.35,0,0,0,.28.26,5.92,5.92,0,0,1,1.27.54,5.56,5.56,0,0,1,.91.61,5.31,5.31,0,0,1,.65.6,5.86,5.86,0,0,1,1.25,2,8.94,8.94,0,0,1,.36,1.25,5.77,5.77,0,0,1,.08,1.71,6.07,6.07,0,0,1-.22,1.16,6.25,6.25,0,0,1-.95,2c-.13.2-.13.21,0,.4a9,9,0,0,1,.62,1.24,6.6,6.6,0,0,1,.39,1.29c.06.28.09.56.13.85a9.27,9.27,0,0,1,0,1.29,6.56,6.56,0,0,1-.14,1.17,7.87,7.87,0,0,1-.92,2.49,6.87,6.87,0,0,1-.68,1,7.75,7.75,0,0,1-.81.9c-.28.25-.57.48-.87.7a7.13,7.13,0,0,1-1.42.81,8,8,0,0,1-1.42.49,4.24,4.24,0,0,1-1,.15c-.1,0-.13.05-.16.13a4.35,4.35,0,0,1-.46.77,5.5,5.5,0,0,1-.73.8,5.31,5.31,0,0,1-1.22.79,4.27,4.27,0,0,1-1.1.35,6.7,6.7,0,0,1-1.09.1c-.15,0-.29-.09-.45,0a4.89,4.89,0,0,1-1.91-.66C454.74,197.59,454.56,197.45,454.38,197.33Z" transform="translate(-19.17 -23.49)"/><path class="cls-17" d="M454.38,197.33a5.27,5.27,0,0,0,1.59.84,3.31,3.31,0,0,0,.87.19v38h-2.46Z" transform="translate(-19.17 -23.49)"/><path class="cls-18" d="M491.17,324.76c0,8.3-6.31,15-14.1,15H35.26c-7.79,0-14.1-6.72-14.1-15V249.05c0-8.3,6.31-15,14.1-15H477.07c7.79,0,14.1,6.72,14.1,15Z" transform="translate(-19.17 -23.49)"/><path class="cls-13" d="M76,288.9c1.82,0,4.37.07,4.91.07a3,3,0,0,1,3.3,3.22c.2,7.2,13.72,7.74,12.17-3.22-.67-4.58-3.36-6.06-8.41-7.13-13.92-3.1-14.52-13.46-14.73-18.7-.33-11.16,7.07-17.62,18.16-17.22a15.1,15.1,0,0,1,14.73,15.4v.07a2.36,2.36,0,0,1-2.42,2.42H97.87a2.1,2.1,0,0,1-2.09-2.28v-.61a5.31,5.31,0,0,0-4.23-5.51c-5.72-.95-9.15,3-8.21,9.55.94,4.1,2.89,5.78,8.48,7.19,9.28,2.29,14.39,5.85,15.06,16,.81,12.1-6.12,18.63-16.88,18.56-8.88-.07-16.81-5.11-16.75-15.06v-.07c.07-2.56,1.35-2.76,2.76-2.69" transform="translate(-19.17 -23.49)"/><path class="cls-13" d="M115.36,303.36V249.08a2.33,2.33,0,0,1,2.15-2.22h6.26a2.2,2.2,0,0,1,2.22,2.22v24l15.94-.07V249.08a2.36,2.36,0,0,1,2.35-2.22h6.05a2.42,2.42,0,0,1,2.36,2.22v54.28a2.37,2.37,0,0,1-2.36,2.28h-6.05a2.31,2.31,0,0,1-2.35-2.28v-20l-15.94.06v20a2.25,2.25,0,0,1-2.22,2.28h-6.26a2.28,2.28,0,0,1-2.15-2.28" transform="translate(-19.17 -23.49)"/><path class="cls-13" d="M197.55,305.71h-7.13a1.89,1.89,0,0,1-2.15-1.82l-2.15-9.61h-12l-1.82,9.61c-.27,1.22-.74,1.82-2.15,1.82h-7.13c-1.48,0-2.49-.94-2.22-2.15l11.1-54.48a3.06,3.06,0,0,1,3-2.21h10.63a3.09,3.09,0,0,1,3.09,2.21l11,54.48c.2,1.21-.67,2.15-2.15,2.15m-22.06-20.64,9.48.06-4.77-27.71Z" transform="translate(-19.17 -23.49)"/><path class="cls-13" d="M209.73,303.56l-9.95-54.68a1.8,1.8,0,0,1,1.94-2.08h6.06a2.82,2.82,0,0,1,2.62,2.08l5.92,38.47,4.84-37.73c.34-2.15,1.68-2.82,3.5-2.82h5.11c2.09,0,3,.87,3.36,2.62l6.06,37.93,4.91-38.27a2.78,2.78,0,0,1,2.62-2.28h6.05c1.08,0,2.09,1,2,1.68l-8.68,54.41c-.27,1.68-1.34,2.75-2.69,2.75H235a2.82,2.82,0,0,1-2.63-2.08l-4.57-28.65-4.44,28c-.34,1.68-1.41,2.75-2.76,2.75h-8.34a2.61,2.61,0,0,1-2.55-2.08" transform="translate(-19.17 -23.49)"/><path class="cls-13" d="M270.06,303.36v-47h-8.14c-1.41,0-2.42-.74-2.42-2V249a2.25,2.25,0,0,1,2.42-2.22h26.43c1.35,0,2.49.61,2.49,2.22v5.38c0,1.34-1.14,2-2.49,2h-7.73v47a2.19,2.19,0,0,1-2.15,2.28h-6.26a2.28,2.28,0,0,1-2.15-2.28" transform="translate(-19.17 -23.49)"/><path class="cls-13" d="M296.3,289.77V262.06a15.9,15.9,0,0,1,16.14-16.14h2.75A15.83,15.83,0,0,1,331.27,262l.07,27.77c0,9-7.54,16.48-16,16.48H312.5a16,16,0,0,1-16.2-16.48m24.14-.33V261.93a6.47,6.47,0,0,0-6.66-6.46h-.27a6.52,6.52,0,0,0-6.72,6.46v27.51a6.86,6.86,0,0,0,6.72,6.86h.34a6.79,6.79,0,0,0,6.59-6.86" transform="translate(-19.17 -23.49)"/><path class="cls-13" d="M346.07,303.56l-10-54.68a1.8,1.8,0,0,1,1.95-2.08h6.06a2.82,2.82,0,0,1,2.62,2.08l5.92,38.47,4.84-37.73c.34-2.15,1.68-2.82,3.5-2.82h5.11c2.08,0,3,.87,3.36,2.62l6.06,37.93,4.91-38.27a2.78,2.78,0,0,1,2.62-2.28h6.05c1.08,0,2.09,1,2,1.68l-8.68,54.41c-.27,1.68-1.34,2.75-2.69,2.75h-8.4a2.82,2.82,0,0,1-2.63-2.08l-4.57-28.65-4.44,28c-.34,1.68-1.41,2.75-2.76,2.75h-8.34a2.61,2.61,0,0,1-2.55-2.08" transform="translate(-19.17 -23.49)"/><path class="cls-13" d="M399.2,303.29V248.88a2.32,2.32,0,0,1,2.36-2.28h7.94c2.28,0,3.36.2,4.43,2.35l12.85,37.46L426,248.88a2.2,2.2,0,0,1,2.22-2.28h6.39a2.27,2.27,0,0,1,2.15,1.68v54.4c0,1.75-.87,2.9-2.15,2.9l-6.93.06c-1.28,0-3.43-.67-4-2.22l-14.33-39,.74,38.87a2.23,2.23,0,0,1-2.28,2.29h-6.19a2.33,2.33,0,0,1-2.36-2.29" transform="translate(-19.17 -23.49)"/><line class="cls-19" x1="356.56" y1="297.05" x2="441.16" y2="297.05"/><line class="cls-19" x1="30.09" y1="297.05" x2="114.69" y2="297.05"/><polygon class="cls-13" points="147.02 292.21 147.02 293.62 145.77 293.86 145.77 303.9 143.43 303.9 138.71 296.03 138.66 296.04 138.66 302.26 139.91 302.5 139.91 303.9 135.07 303.9 135.07 302.5 136.31 302.26 136.31 293.86 135.07 293.62 135.07 292.21 136.31 292.21 138.66 292.21 143.38 300.08 143.43 300.07 143.43 293.86 142.18 293.62 142.18 292.21 145.77 292.21 147.02 292.21"/><path class="cls-13" d="M171.16,327.56a3.92,3.92,0,0,1-3-1.2A4.33,4.33,0,0,1,167,323.3V323a4.73,4.73,0,0,1,1.07-3.19,4,4,0,0,1,5.58-.19,4.07,4.07,0,0,1,1,2.87v1.28h-5.18l0,0a2.25,2.25,0,0,0,.57,1.42,1.8,1.8,0,0,0,1.39.55,4.66,4.66,0,0,0,1.29-.15,6,6,0,0,0,1.13-.5l.63,1.45a4.63,4.63,0,0,1-1.39.71,6,6,0,0,1-1.91.29m-.21-7.21a1.22,1.22,0,0,0-1,.5,2.62,2.62,0,0,0-.46,1.31l0,0h2.88V322a1.92,1.92,0,0,0-.35-1.2,1.3,1.3,0,0,0-1.06-.44" transform="translate(-19.17 -23.49)"/><path class="cls-13" d="M175.69,326l1.13-.24v-5.39l-1.25-.25V318.7h3.6v7.05l1.12.24v1.4h-4.6Zm3.48-9.37h-2.35v-1.76h2.35Z" transform="translate(-19.17 -23.49)"/><path class="cls-13" d="M181.21,323.12a5.67,5.67,0,0,1,.89-3.32,2.92,2.92,0,0,1,2.52-1.26,2.46,2.46,0,0,1,1.28.33,2.77,2.77,0,0,1,.95.92l.17-1.09h2v8.44a3.6,3.6,0,0,1-1.08,2.74,4.15,4.15,0,0,1-3,1,5.91,5.91,0,0,1-1.4-.18,6.53,6.53,0,0,1-1.37-.49l.44-1.65a7,7,0,0,0,1.12.38,4.62,4.62,0,0,0,1.19.14,1.56,1.56,0,0,0,1.29-.52,2.26,2.26,0,0,0,.42-1.45v-.57a2.65,2.65,0,0,1-.9.74,2.58,2.58,0,0,1-1.2.26,3,3,0,0,1-2.5-1.18,5,5,0,0,1-.89-3.09Zm2.34.17a3.47,3.47,0,0,0,.39,1.79,1.35,1.35,0,0,0,1.25.66,1.91,1.91,0,0,0,.91-.2,1.49,1.49,0,0,0,.6-.57v-3.78a1.67,1.67,0,0,0-.6-.61,1.75,1.75,0,0,0-.89-.22,1.34,1.34,0,0,0-1.26.77,4.34,4.34,0,0,0-.4,2Z" transform="translate(-19.17 -23.49)"/><path class="cls-13" d="M190.33,326l1.14-.24v-9.23l-1.26-.24v-1.42h3.59v4.95a3.12,3.12,0,0,1,1-.94,2.63,2.63,0,0,1,1.31-.33,2.69,2.69,0,0,1,2.15.9,4.29,4.29,0,0,1,.77,2.8v3.51l1.13.24v1.4h-4.49V326l1-.24v-3.53a2.2,2.2,0,0,0-.36-1.43,1.3,1.3,0,0,0-1.07-.43,1.9,1.9,0,0,0-.85.18,1.78,1.78,0,0,0-.62.5v4.71l1,.24v1.4h-4.49Z" transform="translate(-19.17 -23.49)"/><path class="cls-13" d="M209.32,323.29a5.16,5.16,0,0,1-.86,3.11,3,3,0,0,1-2.51,1.16,2.52,2.52,0,0,1-2.27-1.24l-.17,1.07h-2V316.52l-1.24-.24v-1.42h3.58v4.76a2.74,2.74,0,0,1,.9-.8,2.51,2.51,0,0,1,1.21-.28,2.89,2.89,0,0,1,2.53,1.25,5.79,5.79,0,0,1,.86,3.33Zm-2.33-.17a4.47,4.47,0,0,0-.38-2,1.31,1.31,0,0,0-1.27-.75,1.81,1.81,0,0,0-.93.23,1.58,1.58,0,0,0-.59.66v3.67a1.41,1.41,0,0,0,.6.61,1.91,1.91,0,0,0,.93.21,1.32,1.32,0,0,0,1.27-.64,3.73,3.73,0,0,0,.37-1.81Z" transform="translate(-19.17 -23.49)"/><path class="cls-13" d="M210.41,323a4.64,4.64,0,0,1,1.09-3.19,4.27,4.27,0,0,1,6,0,4.63,4.63,0,0,1,1.09,3.19v.17a4.63,4.63,0,0,1-1.09,3.19,4.3,4.3,0,0,1-6,0,4.63,4.63,0,0,1-1.09-3.19Zm2.34.17a3.74,3.74,0,0,0,.42,1.9,1.61,1.61,0,0,0,2.68,0,3.77,3.77,0,0,0,.42-1.9V323a3.67,3.67,0,0,0-.43-1.89,1.43,1.43,0,0,0-1.34-.73,1.41,1.41,0,0,0-1.33.73,3.78,3.78,0,0,0-.42,1.89Z" transform="translate(-19.17 -23.49)"/><path class="cls-13" d="M219.81,326l1.12-.24v-5.39l-1.25-.24V318.7h3.43l.11,1.27a2.6,2.6,0,0,1,.79-1.05,1.76,1.76,0,0,1,1.11-.38l.39,0a2,2,0,0,1,.34.07l-.25,2.13-1,0a1.67,1.67,0,0,0-.85.2,1.23,1.23,0,0,0-.51.57v4.23l1.12.24v1.4h-4.59Z" transform="translate(-19.17 -23.49)"/><path class="cls-13" d="M226,326l1.13-.24v-9.23l-1.25-.24v-1.42h3.59v4.95a3,3,0,0,1,1-.94,2.63,2.63,0,0,1,1.31-.33,2.67,2.67,0,0,1,2.14.9,4.23,4.23,0,0,1,.78,2.8v3.51l1.12.24v1.4h-4.48V326l1-.24v-3.53a2.27,2.27,0,0,0-.35-1.43,1.31,1.31,0,0,0-1.07-.43,1.9,1.9,0,0,0-.85.18,1.78,1.78,0,0,0-.62.5v4.71l1,.24v1.4H226Z" transform="translate(-19.17 -23.49)"/><path class="cls-13" d="M236.53,323a4.64,4.64,0,0,1,1.09-3.19,4.27,4.27,0,0,1,6,0,4.63,4.63,0,0,1,1.09,3.19v.17a4.63,4.63,0,0,1-1.09,3.19,4.3,4.3,0,0,1-6,0,4.63,4.63,0,0,1-1.09-3.19Zm2.34.17a3.74,3.74,0,0,0,.42,1.9,1.45,1.45,0,0,0,1.35.72A1.42,1.42,0,0,0,242,325a3.77,3.77,0,0,0,.42-1.9V323a3.78,3.78,0,0,0-.42-1.89,1.59,1.59,0,0,0-2.68,0,3.78,3.78,0,0,0-.42,1.89Z" transform="translate(-19.17 -23.49)"/><path class="cls-13" d="M245.75,323a4.64,4.64,0,0,1,1.09-3.19,4.27,4.27,0,0,1,6,0A4.63,4.63,0,0,1,254,323v.17a4.63,4.63,0,0,1-1.09,3.19,4.3,4.3,0,0,1-6,0,4.63,4.63,0,0,1-1.09-3.19Zm2.35.17a3.75,3.75,0,0,0,.41,1.9,1.45,1.45,0,0,0,1.35.72,1.42,1.42,0,0,0,1.33-.72,3.77,3.77,0,0,0,.42-1.9V323a3.78,3.78,0,0,0-.42-1.89,1.59,1.59,0,0,0-2.68,0,3.78,3.78,0,0,0-.41,1.89Z" transform="translate(-19.17 -23.49)"/><path class="cls-13" d="M260.63,326.33a3,3,0,0,1-1,.92,2.55,2.55,0,0,1-1.28.31,2.94,2.94,0,0,1-2.49-1.17,5,5,0,0,1-.89-3.1v-.17a5.67,5.67,0,0,1,.89-3.32,2.9,2.9,0,0,1,2.51-1.26,2.39,2.39,0,0,1,1.17.29,2.79,2.79,0,0,1,.92.8v-3.11l-1.25-.24v-1.42h3.6v10.89L264,326v1.4H260.8Zm-3.28-3a3.58,3.58,0,0,0,.38,1.79,1.33,1.33,0,0,0,1.25.66,1.8,1.8,0,0,0,.89-.21,1.69,1.69,0,0,0,.62-.6v-3.69a1.84,1.84,0,0,0-.62-.65,1.65,1.65,0,0,0-.88-.23,1.32,1.32,0,0,0-1.25.77,4.35,4.35,0,0,0-.39,2Z" transform="translate(-19.17 -23.49)"/><path class="cls-13" d="M268.56,326l.84-.12L273,315.7h2.4l3.53,10.17.84.12v1.4h-4V326l.81-.15-.51-1.6h-3.79l-.52,1.6.82.15v1.4h-4Zm4.24-3.48h2.69l-1.32-4.12h-.05Z" transform="translate(-19.17 -23.49)"/><path class="cls-13" d="M287.65,321.69h-1.58l-.25-1.09a2.41,2.41,0,0,0-.6-.32,2.64,2.64,0,0,0-.81-.13,1.61,1.61,0,0,0-1,.28.86.86,0,0,0-.36.7.78.78,0,0,0,.34.65,3.52,3.52,0,0,0,1.39.46,5.65,5.65,0,0,1,2.39.95,2.06,2.06,0,0,1,.78,1.71,2.3,2.3,0,0,1-1,1.92,4.4,4.4,0,0,1-2.65.74,5.74,5.74,0,0,1-1.85-.29,5,5,0,0,1-1.49-.84l0-1.95h1.64l.32,1.13a1.37,1.37,0,0,0,.57.26,3.08,3.08,0,0,0,.75.08,1.93,1.93,0,0,0,1.09-.25.81.81,0,0,0,.37-.7.82.82,0,0,0-.37-.67,3.77,3.77,0,0,0-1.39-.49,5.54,5.54,0,0,1-2.32-.93,2,2,0,0,1-.78-1.68,2.41,2.41,0,0,1,.9-1.88,3.74,3.74,0,0,1,2.56-.79,6.63,6.63,0,0,1,1.91.27,3.84,3.84,0,0,1,1.42.7Z" transform="translate(-19.17 -23.49)"/><path class="cls-13" d="M296.11,321.69h-1.57l-.25-1.09a2.31,2.31,0,0,0-.61-.32,2.53,2.53,0,0,0-.8-.13,1.59,1.59,0,0,0-1,.28.84.84,0,0,0-.37.7.79.79,0,0,0,.35.65,3.52,3.52,0,0,0,1.38.46,5.64,5.64,0,0,1,2.4.95,2.08,2.08,0,0,1,.77,1.71,2.29,2.29,0,0,1-1,1.92,4.41,4.41,0,0,1-2.66.74,5.68,5.68,0,0,1-1.84-.29,4.84,4.84,0,0,1-1.49-.84l0-1.95h1.64l.32,1.13a1.36,1.36,0,0,0,.58.26,3,3,0,0,0,.75.08,1.93,1.93,0,0,0,1.09-.25.81.81,0,0,0,.37-.7.83.83,0,0,0-.38-.67,3.7,3.7,0,0,0-1.39-.49,5.55,5.55,0,0,1-2.31-.93,2,2,0,0,1-.79-1.68,2.41,2.41,0,0,1,.9-1.88,3.76,3.76,0,0,1,2.57-.79,6.63,6.63,0,0,1,1.91.27,3.92,3.92,0,0,1,1.42.7Z" transform="translate(-19.17 -23.49)"/><path class="cls-13" d="M297.49,323a4.69,4.69,0,0,1,1.08-3.19,4.29,4.29,0,0,1,6,0,4.67,4.67,0,0,1,1.09,3.19v.17a4.67,4.67,0,0,1-1.09,3.19,4.31,4.31,0,0,1-6,0,4.67,4.67,0,0,1-1.08-3.19Zm2.34.17a3.74,3.74,0,0,0,.42,1.9,1.45,1.45,0,0,0,1.35.72,1.42,1.42,0,0,0,1.33-.72,3.77,3.77,0,0,0,.42-1.9V323a3.67,3.67,0,0,0-.43-1.89,1.43,1.43,0,0,0-1.34-.73,1.41,1.41,0,0,0-1.33.73,3.78,3.78,0,0,0-.42,1.89Z" transform="translate(-19.17 -23.49)"/><path class="cls-13" d="M310.79,325.76a1.38,1.38,0,0,0,1-.36,1.32,1.32,0,0,0,.38-1h2.12l0,.05a2.73,2.73,0,0,1-1,2.2,4.18,4.18,0,0,1-5.54-.34,4.68,4.68,0,0,1-1.05-3.15v-.25a4.6,4.6,0,0,1,1.08-3.15,3.86,3.86,0,0,1,3.08-1.24,5.59,5.59,0,0,1,1.89.31,3.82,3.82,0,0,1,1.39.89l0,2.32h-1.9l-.39-1.36a1.62,1.62,0,0,0-.43-.25,1.55,1.55,0,0,0-.59-.1,1.47,1.47,0,0,0-1.4.72,3.68,3.68,0,0,0-.42,1.86v.25a4,4,0,0,0,.38,1.87,1.38,1.38,0,0,0,1.33.71" transform="translate(-19.17 -23.49)"/><path class="cls-13" d="M315.3,326l1.13-.24v-5.39l-1.25-.25V318.7h3.6v7.05l1.12.24v1.4h-4.6Zm3.48-9.37h-2.35v-1.76h2.35Z" transform="translate(-19.17 -23.49)"/><path class="cls-13" d="M326.21,327.39c-.06-.14-.12-.29-.17-.44a4,4,0,0,1-.11-.47,3,3,0,0,1-1,.78,3,3,0,0,1-1.37.3,2.86,2.86,0,0,1-2-.69,2.44,2.44,0,0,1-.76-1.89,2.15,2.15,0,0,1,1-1.89,5.11,5.11,0,0,1,2.88-.67h1.2v-.85a1.28,1.28,0,0,0-.36-1,1.51,1.51,0,0,0-1.07-.35,2.63,2.63,0,0,0-.72.09,1.8,1.8,0,0,0-.5.23l-.16.93h-1.76v-1.93a6.59,6.59,0,0,1,1.48-.73,5.29,5.29,0,0,1,1.81-.3,4.09,4.09,0,0,1,2.62.79,2.71,2.71,0,0,1,1,2.26v3.59c0,.13,0,.26,0,.37s0,.23,0,.34l.72.1v1.4Zm-2-1.56a2.06,2.06,0,0,0,1-.23,1.86,1.86,0,0,0,.68-.58V323.7h-1.2a1.58,1.58,0,0,0-1.13.35,1.08,1.08,0,0,0-.39.84.88.88,0,0,0,.29.69,1.19,1.19,0,0,0,.79.25" transform="translate(-19.17 -23.49)"/><path class="cls-13" d="M332.53,316.57v2.13h1.53v1.65h-1.53v4.42a1,1,0,0,0,.21.73.76.76,0,0,0,.56.21,2.82,2.82,0,0,0,.43,0l.4-.06.2,1.69a5.49,5.49,0,0,1-.78.18,5.31,5.31,0,0,1-.83.06,2.52,2.52,0,0,1-1.87-.66,2.93,2.93,0,0,1-.65-2.12v-4.43h-1.28V318.7h1.28v-2.13Z" transform="translate(-19.17 -23.49)"/><path class="cls-13" d="M335.13,326l1.14-.24v-5.39l-1.26-.25V318.7h3.6v7.05l1.13.24v1.4h-4.61Zm3.48-9.37h-2.34v-1.76h2.34Z" transform="translate(-19.17 -23.49)"/><path class="cls-13" d="M340.51,323a4.64,4.64,0,0,1,1.09-3.19,4.27,4.27,0,0,1,6,0,4.63,4.63,0,0,1,1.09,3.19v.17a4.63,4.63,0,0,1-1.09,3.19,4.3,4.3,0,0,1-6,0,4.63,4.63,0,0,1-1.09-3.19Zm2.34.17a3.74,3.74,0,0,0,.42,1.9,1.45,1.45,0,0,0,1.35.72A1.42,1.42,0,0,0,346,325a3.77,3.77,0,0,0,.42-1.9V323a3.78,3.78,0,0,0-.42-1.89,1.44,1.44,0,0,0-1.35-.73,1.41,1.41,0,0,0-1.33.73,3.78,3.78,0,0,0-.42,1.89Z" transform="translate(-19.17 -23.49)"/><path class="cls-13" d="M349.6,326l1.13-.24v-5.39l-1.25-.24V318.7h3.43L353,320a3.21,3.21,0,0,1,1.07-1,2.77,2.77,0,0,1,1.43-.37,2.62,2.62,0,0,1,2.05.83,3.81,3.81,0,0,1,.74,2.59v3.79l1.13.24v1.4h-4.49V326l1-.24V322a1.73,1.73,0,0,0-.36-1.24,1.43,1.43,0,0,0-1.07-.37,1.88,1.88,0,0,0-.83.19,1.79,1.79,0,0,0-.62.54v4.66l.95.24v1.4H349.6Z" transform="translate(-19.17 -23.49)"/></g></g></svg>